# xmcd
#
# Track frame offsets: 
#        150
#        1893
#        24122
#        41782
#        59991
#        75405
#        93714
#        113605
#        130400
#        148772
#        166925
#        182711
#        201683
#        220986
#        237953
#        260893
#
# Disc length: 3546 seconds
#
# Revision: 1
# Processed by: cddbd v1.4PL0 Copyright (c) Steve Scherf et al.
# Submitted via: ExactAudioCopy v0.95a2
#
DISCID=ed0dd810
DTITLE=The Groobees - Buy One Get Eleven Free
DYEAR=2001
DGENRE=Country
TTITLE0=Introduction
TTITLE1=Let's Go Out Tonight
TTITLE2=Cloud Nine
TTITLE3=Down In Flames
TTITLE4=My Best Feature
TTITLE5=Ballad Of An Opening Band
TTITLE6=Two Hometowns
TTITLE7=Perfect World
TTITLE8=Cheap Trucker Speed
TTITLE9=The Last Word
TTITLE10=Sorry, Jack
TTITLE11=Walls Come Down
TTITLE12=Old Boyfriend's Things
TTITLE13=You Came Along
TTITLE14=George and Lucile
TTITLE15=Closing
EXTD=
EXTT0=
EXTT1=
EXTT2=
EXTT3=
EXTT4=
EXTT5=
EXTT6=
EXTT7=
EXTT8=
EXTT9=
EXTT10=
EXTT11=
EXTT12=
EXTT13=
EXTT14=
EXTT15=
PLAYORDER=
